<?xml version="1.0" encoding="utf-8"?>
<!-- Generator: Adobe Illustrator 26.0.1, SVG Export Plug-In . SVG Version: 6.00 Build 0)  -->
<svg version="1.1" id="Lager_1" xmlns="http://www.w3.org/2000/svg" xmlns:xlink="http://www.w3.org/1999/xlink" x="0px" y="0px"
	 viewBox="0 0 343 117" style="enable-background:new 0 0 343 117;" xml:space="preserve">
<style type="text/css">
	.st0{fill:#870AA0;stroke:#000000;stroke-miterlimit:10;}
	.st1{stroke:#000000;stroke-miterlimit:10;}
	.st2{fill:#FA1996;stroke:#000000;stroke-miterlimit:10;}
</style>
<g id="Lager_2_00000132070883291028086460000005391639007481935022_">
	<g id="Lager_4_kopia">
		<polygon points="90,33.5 66,33.5 66,116.5 90,116.5 90,33.5 		"/>
		<path class="st0" d="M90.5,117h-25V33h25V117z M66.5,116h23V34h-23V116z"/>
		<polygon class="st1" points="172,33.5 148,33.5 148,116.5 172,116.5 172,33.5 		"/>
		<polygon points="237,72.5 213,72.5 213,117 237,117 237,72.5 		"/>
		<polygon points="299,72.5 276,72.5 276,117 299,117 299,72.5 		"/>
		<polygon points="129,49.5 106,49.5 106,116.5 129,116.5 129,49.5 		"/>
		<path class="st0" d="M129.5,117h-24V49h24V117z M106.5,116h22V50h-22V116z"/>
		<polygon class="st1" points="129,0.5 106,0.5 106,49 129,49 129,0.5 		"/>
		<path class="st2" d="M129.5,49.5h-24V0h24V49.5z M106.5,48.5h22V1h-22V48.5z"/>
		<polygon points="343,98.5 317,98.5 317,117 343,117 343,98.5 		"/>
		<polygon points="343,65.5 317,65.5 317,98.5 343,98.5 343,65.5 		"/>
		<polygon points="343,33.5 317,33.5 317,72.5 343,72.5 343,33.5 		"/>
		<path d="M330,0.5c-7.2,0-13,5.8-13,13s5.8,13,13,13s13-5.8,13-13S337.2,0.5,330,0.5z"/>
		<path d="M236.7,73.5c0-0.2,0-0.3,0-0.5c0-10.8,8.8-19.6,19.6-19.6c10.8,0,19.6,8.8,19.6,19.6c0,0.2,0,0.3,0,0.5H299
			c0-0.2,0-0.3,0-0.5c0-23.6-19.1-42.8-42.8-42.8S213.5,49.4,213.5,73c0,0.2,0,0.3,0,0.5H236.7z"/>
		<path class="st1" d="M172.1,73.5c0-0.2,0-0.3,0-0.5c0-10.8,9.2-19.5,20.4-19.5s20.4,8.8,20.4,19.5c0,0.2,0,0.3,0,0.5H237
			c0-0.2,0-0.3,0-0.5c0-23.5-19.9-42.5-44.5-42.5S148,49.5,148,73c0,0.2,0,0.3,0,0.5H172.1z"/>
		<path d="M45,54.5c11.4,0,20.7,8.8,20.7,19.5S56.4,93.5,45,93.5S24.4,84.8,24.4,74S33.6,54.5,45,54.5 M45,31.5
			c-24.9,0-45,19-45,42.5s20.1,42.5,45,42.5s45-19,45-42.5S69.8,31.5,45,31.5z"/>
	</g>
</g>
</svg>
