<svg xmlns="http://www.w3.org/2000/svg" viewBox="0 0 997.66 189"><defs><style>.cls-1{fill:#2819ff;}.cls-2{fill:#a0aaff;}.cls-3{fill:#870aa0;}</style></defs><g id="Lager_2" data-name="Lager 2"><g id="Lager_1-2" data-name="Lager 1"><g id="Lager_2-2" data-name="Lager 2"><g id="Lager_2-2-2" data-name="Lager 2-2"><polygon class="cls-1" points="58 189 21 189 59 0 96 0 58 189"/><polygon class="cls-1" points="128 189 91 189 129 0 166 0 128 189"/><rect class="cls-2" x="11" y="47" width="175" height="34"/><rect class="cls-3" y="113" width="175" height="34"/></g></g><path d="M241.19,54.12h11.12c.08,3.92,3.92,7.2,9,7.2,5,0,8.24-2.72,8.24-6.64,0-3-2.24-5.2-7-6.64l-6.72-1.92c-12.08-3.2-14.24-10.48-14.24-15.44,0-9.85,8.48-16.64,19-16.64,10.4,0,18.4,6.31,18.4,16.8H268c0-3.93-2.72-7-7.52-7-4.32,0-7.6,2.89-7.6,6.57,0,1.36.4,4.16,6.16,5.84L265.19,38c8.32,2.48,15.6,6.72,15.6,16.08,0,11-9.36,17-19.76,17C249.27,71.08,241.19,63.8,241.19,54.12Z"/><path d="M313.19,32.76h11.44L308.87,70.12h-9.36L283.75,32.76h11.36l9.12,23.84Z"/><path d="M366.15,54.84H338.07c1.12,4.4,4.64,7,9.6,7a13.34,13.34,0,0,0,9.84-4.4l6.08,6.16c-3.52,4.72-10,7.52-16.56,7.52-11.52,0-19.92-8.08-19.92-19.6,0-12.08,9.2-19.68,19.84-19.68s19.44,7.6,19.44,19C366.39,51.88,366.31,53.16,366.15,54.84ZM355.83,48c-.32-4.4-3.92-7.2-8.64-7.2-4.32,0-8,2.16-9.12,7.2Z"/><path d="M401.75,33l-2.4,10A10.87,10.87,0,0,0,394,41.64c-5.36,0-9,5-9,15.68v12.8H374.47V32.76h10.4v8c2.08-6.24,6.32-9,11-9A13.3,13.3,0,0,1,401.75,33Z"/><path d="M405.91,19.87a6.65,6.65,0,0,1,13.28,0,6.65,6.65,0,0,1-13.28,0Zm1.44,50.25V32.76h10.48V70.12Z"/><path d="M456.47,32.76H467V65.48c0,16.32-8.24,23.92-21.44,23.92A19.76,19.76,0,0,1,427.35,78l8.72-3.76A10.59,10.59,0,0,0,445.51,80c6.72,0,11-3.76,11-13.44v-1c-2.72,3.68-7.84,5.52-12,5.52-9.6,0-18.32-7.68-18.32-19.68s8.72-19.6,18.32-19.6c4.24,0,9.28,1.76,12,5.44Zm-.32,18.64a9.85,9.85,0,0,0-9.68-9.84,9.75,9.75,0,0,0-9.68,9.84,9.68,9.68,0,1,0,19.36,0Z"/><path d="M514.31,54.84H486.23c1.12,4.4,4.64,7,9.6,7a13.34,13.34,0,0,0,9.84-4.4l6.08,6.16c-3.52,4.72-10,7.52-16.56,7.52-11.52,0-19.92-8.08-19.92-19.6,0-12.08,9.2-19.68,19.84-19.68s19.44,7.6,19.44,19C514.55,51.88,514.47,53.16,514.31,54.84ZM504,48c-.32-4.4-3.92-7.2-8.64-7.2-4.32,0-8,2.16-9.12,7.2Z"/><path d="M520.31,58.36h9.84c0,2.16,1.84,4.48,5.52,4.48,3,0,5.36-1.52,5.36-3.68,0-1.6-1.28-2.4-4.08-3.12l-5-1.2c-9.6-2.56-10.88-7.92-10.88-11.84,0-5.76,6-11.2,14.64-11.2,6.8,0,14.8,3.28,14.72,12.16h-10c0-2.56-2.08-3.92-4.56-3.92s-4.32,1.36-4.32,3.28c0,1.76,1.6,2.64,3.68,3.2l6.16,1.6c9,2.4,10.08,8,10.08,11,0,7.84-8,11.92-15.68,11.92C528,71.08,520.39,66.6,520.31,58.36Z"/><path d="M638.55,49.64V70.12H628V50c0-5.84-3-8.32-6.72-8.32-4.48-.08-7.36,3.12-7.36,10.08v18.4H603.43v-20c0-5.92-3-8.48-6.57-8.48-3.76,0-7.6,2.08-7.6,8.8V70.12H578.78V32.76h10.48V40c.8-5.52,6.32-8.24,10.57-8.24,5.52,0,9.76,2.64,12,7.36,2.72-5.44,8.56-7.36,12.48-7.36C633.67,31.8,638.55,38.44,638.55,49.64Z"/><path d="M685.35,54.84H657.26c1.12,4.4,4.64,7,9.6,7a13.34,13.34,0,0,0,9.84-4.4l6.08,6.16c-3.51,4.72-10,7.52-16.56,7.52-11.52,0-19.92-8.08-19.92-19.6,0-12.08,9.2-19.68,19.84-19.68s19.45,7.6,19.45,19C685.59,51.88,685.51,53.16,685.35,54.84ZM675,48c-.32-4.4-3.92-7.2-8.64-7.2-4.32,0-8,2.16-9.12,7.2Z"/><path d="M691.34,58.36h9.84c0,2.16,1.84,4.48,5.52,4.48,3,0,5.36-1.52,5.36-3.68,0-1.6-1.28-2.4-4.08-3.12l-5-1.2c-9.6-2.56-10.88-7.92-10.88-11.84,0-5.76,6-11.2,14.64-11.2,6.8,0,14.81,3.28,14.73,12.16h-10c0-2.56-2.08-3.92-4.56-3.92s-4.32,1.36-4.32,3.28c0,1.76,1.61,2.64,3.68,3.2l6.16,1.6c9,2.4,10.09,8,10.09,11,0,7.84-8,11.92-15.69,11.92C699,71.08,691.42,66.6,691.34,58.36Z"/><path d="M752.54,32.76v8.16h-7.92v29.2H734.14V40.92h-6.8V32.76h6.8V19.16h10.48v13.6Z"/><path d="M806.46,32.76h10.48V70.12H806.46V64.76a14.79,14.79,0,0,1-12.32,6.32c-10.32,0-18-8-18-19.6s7.52-19.68,18.24-19.68c4.8,0,9.6,2.08,12.08,5.92Zm-.32,18.72a9.83,9.83,0,0,0-9.76-9.92,9.89,9.89,0,0,0,.08,19.76A9.85,9.85,0,0,0,806.14,51.48Z"/><path d="M864.14,70.12h-13L838,54V70.12H827.5V12.44H838V44.2l9.44-11.44h13.44L846.3,49.24Z"/><path d="M890.62,32.76v8.16H882.7v29.2H872.22V40.92h-6.8V32.76h6.8V19.16H882.7v13.6Z"/><path d="M896,19.87a6.65,6.65,0,0,1,13.28,0,6.65,6.65,0,0,1-13.28,0Zm1.44,50.25V32.76H907.9V70.12Z"/><path d="M942.94,32.76h11.44L938.62,70.12h-9.36L913.5,32.76h11.36L934,56.6Z"/><path d="M987.18,32.76h10.48V70.12H987.18V64.76a14.79,14.79,0,0,1-12.32,6.32c-10.32,0-18-8-18-19.6S964.38,31.8,975.1,31.8c4.8,0,9.6,2.08,12.08,5.92Zm-.32,18.72a9.83,9.83,0,0,0-9.76-9.92,9.89,9.89,0,0,0,.08,19.76A9.85,9.85,0,0,0,986.86,51.48Z"/><path d="M265,118.2c-6,0-7.92,3.28-8,7.76v2.79h8.16v8.17H257v29.2H246.55v-29.2h-7v-8.17h7V126c0-11.21,5.76-17.61,16.4-17.61h4.48v9.77Z"/><path d="M268.79,147.48c0-11.84,9.44-19.69,20.08-19.69S309,135.64,309,147.48s-9.44,19.6-20.08,19.6S268.79,159.24,268.79,147.48ZM275,116a5.49,5.49,0,0,1,5.68-5.37,5.41,5.41,0,1,1,0,10.81A5.5,5.5,0,0,1,275,116Zm23.28,31.52c0-5.84-4.24-9.92-9.44-9.92s-9.44,4.08-9.44,9.92a9.45,9.45,0,1,0,18.88,0ZM291.59,116a5.51,5.51,0,0,1,5.76-5.37,5.41,5.41,0,1,1,0,10.81A5.52,5.52,0,0,1,291.59,116Z"/><path d="M344.47,129l-2.4,10a10.87,10.87,0,0,0-5.36-1.36c-5.36,0-9,5-9,15.68v12.8H317.19V128.75h10.4v8c2.08-6.24,6.32-9,11-9A13.31,13.31,0,0,1,344.47,129Z"/><path d="M385.75,150.84H357.67c1.12,4.4,4.64,7,9.6,7a13.34,13.34,0,0,0,9.84-4.4l6.08,6.16c-3.52,4.72-10,7.52-16.56,7.52-11.52,0-19.92-8.08-19.92-19.6,0-12.08,9.2-19.69,19.84-19.69s19.44,7.61,19.44,19C386,147.88,385.91,149.16,385.75,150.84ZM375.43,144c-.32-4.4-3.92-7.2-8.64-7.2-4.32,0-8,2.16-9.12,7.2Z"/><path d="M415.51,128.75v8.17h-7.92v29.2H397.11v-29.2h-6.8v-8.17h6.8V115.16h10.48v13.59Z"/><path d="M449.51,128.75H460v37.37H449.51v-5.36a14.79,14.79,0,0,1-12.32,6.32c-10.32,0-18-8-18-19.6s7.52-19.69,18.24-19.69c4.8,0,9.6,2.08,12.08,5.93Zm-.32,18.73a9.83,9.83,0,0,0-9.76-9.92,9.89,9.89,0,0,0,.08,19.76A9.85,9.85,0,0,0,449.19,147.48Z"/><path d="M498.63,128.75h10.48v32.73c0,16.32-8.24,23.92-21.44,23.92A19.76,19.76,0,0,1,469.51,174l8.72-3.76a10.59,10.59,0,0,0,9.44,5.84c6.72,0,11-3.76,11-13.44v-1c-2.72,3.68-7.84,5.52-12,5.52-9.6,0-18.32-7.68-18.32-19.68s8.72-19.61,18.32-19.61c4.24,0,9.28,1.77,12,5.45Zm-.32,18.65a9.85,9.85,0,0,0-9.68-9.84A9.75,9.75,0,0,0,479,147.4a9.68,9.68,0,1,0,19.36,0Z"/><path d="M517.35,154.36h9.84c0,2.16,1.84,4.48,5.52,4.48,3,0,5.36-1.52,5.36-3.68,0-1.6-1.28-2.4-4.08-3.12l-5-1.2c-9.6-2.56-10.88-7.92-10.88-11.84,0-5.76,6-11.21,14.64-11.21,6.8,0,14.8,3.29,14.72,12.17h-10c0-2.56-2.08-3.92-4.56-3.92s-4.32,1.36-4.32,3.28c0,1.76,1.6,2.64,3.68,3.2l6.16,1.6c9,2.4,10.08,8,10.08,11,0,7.84-8,11.92-15.68,11.92C525,167.08,517.43,162.6,517.35,154.36Z"/><path d="M582.31,128.75h10.48v37.37H582.31V160c-1.6,4.88-7.52,7-11.2,7-9.76,0-14.88-6.56-14.8-17.76V128.75h10.48v20c0,5.84,3.52,8.56,7.12,8.56,3.76,0,8.4-2.08,8.4-8.8Z"/><path d="M625.35,128.75v8.17h-7.92v29.2H607v-29.2h-6.8v-8.17H607V115.16h10.48v13.59Z"/><path d="M656.63,128.75h11.44l-15.76,37.37H643l-15.77-37.37h11.36l9.12,23.85Z"/><path d="M709.59,150.84H681.51c1.12,4.4,4.64,7,9.6,7a13.34,13.34,0,0,0,9.84-4.4l6.08,6.16c-3.52,4.72-10,7.52-16.56,7.52-11.52,0-19.92-8.08-19.92-19.6,0-12.08,9.2-19.69,19.84-19.69s19.44,7.61,19.44,19C709.83,147.88,709.75,149.16,709.59,150.84ZM699.27,144c-.32-4.4-3.92-7.2-8.64-7.2-4.32,0-8,2.16-9.12,7.2Z"/><path d="M715.59,147.32c0-11.84,9.6-19.53,20.48-19.53a18.9,18.9,0,0,1,15.76,8l-7.92,5.52a9.86,9.86,0,0,0-7.76-3.76,9.54,9.54,0,0,0-9.92,9.76,9.69,9.69,0,0,0,9.92,10,9.86,9.86,0,0,0,7.76-3.76l7.92,5.52a18.92,18.92,0,0,1-15.76,8C725.19,167.08,715.59,159.16,715.59,147.32Z"/><path d="M796,166.12H783L769.83,150v16.16H759.35V108.43h10.48V140.2l9.44-11.45h13.44l-14.57,16.49Z"/><path d="M800.46,166.12V108.43h10.48v57.69Z"/><path d="M849.58,128.75h10.48v37.37H849.58v-5.36a14.79,14.79,0,0,1-12.32,6.32c-10.32,0-18-8-18-19.6s7.52-19.69,18.24-19.69c4.8,0,9.6,2.08,12.08,5.93Zm-.32,18.73a9.83,9.83,0,0,0-9.76-9.92,9.89,9.89,0,0,0,.08,19.76A9.85,9.85,0,0,0,849.26,147.48Z"/><path d="M897.9,129l-2.4,10a10.87,10.87,0,0,0-5.36-1.36c-5.36,0-9,5-9,15.68v12.8H870.62V128.75H881v8c2.08-6.24,6.32-9,11-9A13.31,13.31,0,0,1,897.9,129Z"/><path d="M939.18,150.84H911.1c1.12,4.4,4.64,7,9.6,7a13.33,13.33,0,0,0,9.84-4.4l6.08,6.16c-3.52,4.72-10,7.52-16.56,7.52-11.52,0-19.92-8.08-19.92-19.6,0-12.08,9.2-19.69,19.84-19.69s19.45,7.61,19.45,19C939.43,147.88,939.35,149.16,939.18,150.84ZM928.86,144c-.32-4.4-3.92-7.2-8.64-7.2-4.32,0-8,2.16-9.12,7.2Z"/></g></g></svg>